<?xml version="1.0" encoding="UTF-8" standalone="no"?>
<svg
   xmlns:dc="http://purl.org/dc/elements/1.1/"
   xmlns:cc="http://creativecommons.org/ns#"
   xmlns:rdf="http://www.w3.org/1999/02/22-rdf-syntax-ns#"
   xmlns:svg="http://www.w3.org/2000/svg"
   xmlns="http://www.w3.org/2000/svg"
   xmlns:sodipodi="http://sodipodi.sourceforge.net/DTD/sodipodi-0.dtd"
   xmlns:inkscape="http://www.inkscape.org/namespaces/inkscape"
   xml:space="preserve"
   viewBox="19 19 80.972155 88.33333"
   height="120"
   width="110"
   y="0px"
   x="0px"
   id="Layer_1"
   version="1.1"
   inkscape:version="0.48.5 r10040"
   sodipodi:docname="rust_wheel.svg"><metadata
     id="metadata3037"><rdf:RDF><cc:Work
         rdf:about=""><dc:format>image/svg+xml</dc:format><dc:type
           rdf:resource="http://purl.org/dc/dcmitype/StillImage" /><dc:title /></cc:Work></rdf:RDF></metadata><defs
     id="defs3035" /><sodipodi:namedview
     pagecolor="#ffffff"
     bordercolor="#666666"
     borderopacity="1"
     objecttolerance="10"
     gridtolerance="10"
     guidetolerance="10"
     inkscape:pageopacity="0"
     inkscape:pageshadow="2"
     inkscape:window-width="1600"
     inkscape:window-height="834"
     id="namedview3033"
     showgrid="false"
     inkscape:zoom="1.5615275"
     inkscape:cx="416.243"
     inkscape:cy="111.88328"
     inkscape:window-x="0"
     inkscape:window-y="27"
     inkscape:window-maximized="1"
     inkscape:current-layer="g2986" /><g
     id="g2986"
     transform="matrix(3.1591955,0,0,3.579784,-48.053106,-50.835255)"><path
       inkscape:export-ydpi="90"
       inkscape:export-xdpi="90"
       inkscape:export-filename="/home/dowwie/MyProjects/tutorials-rs/authz-rs/images/tutorials.png"
       inkscape:connector-curvature="0"
       d="m 45.712496,31.425032 -0.97947,-0.597694 c -0.008,-0.09405 -0.0176,-0.187878 -0.0279,-0.281268 l 0.84171,-0.773925 c 0.0856,-0.07867 0.12394,-0.195129 0.10075,-0.307855 -0.0225,-0.113167 -0.10298,-0.206337 -0.21243,-0.246549 l -1.07599,-0.396632 c -0.027,-0.09185 -0.0553,-0.183044 -0.0843,-0.273797 l 0.67119,-0.918953 c 0.0684,-0.09339 0.0825,-0.214906 0.0379,-0.321479 -0.0446,-0.106136 -0.142,-0.182165 -0.25724,-0.200843 l -1.13461,-0.181946 c -0.0441,-0.08482 -0.0901,-0.16832 -0.13643,-0.251162 l 0.47681,-1.031681 c 0.0488,-0.105035 0.0388,-0.227212 -0.0263,-0.322578 -0.0649,-0.09581 -0.17476,-0.151842 -0.29201,-0.147446 l -1.15156,0.03955 c -0.0595,-0.07339 -0.12015,-0.146126 -0.18189,-0.217543 l 0.26459,-1.105732 c 0.0268,-0.112287 -0.007,-0.229849 -0.0898,-0.311371 -0.0823,-0.0813 -0.20173,-0.114925 -0.31564,-0.08856 l -1.12146,0.260612 c -0.0727,-0.06065 -0.14645,-0.120637 -0.22113,-0.179307 l 0.0404,-1.135178 c 0.004,-0.114925 -0.0524,-0.224135 -0.14957,-0.28786 -0.0974,-0.06416 -0.22068,-0.07383 -0.32701,-0.02615 l -1.04634,0.470244 c -0.0845,-0.04571 -0.16919,-0.09097 -0.25479,-0.134701 l -0.18501,-1.118697 c -0.0187,-0.113386 -0.0958,-0.209632 -0.20374,-0.253581 -0.10767,-0.04417 -0.23116,-0.02989 -0.3259,0.03736 l -0.93287,0.661638 c -0.0918,-0.02879 -0.18413,-0.05647 -0.2773,-0.08284 l -0.40237,-1.060905 c -0.0408,-0.108112 -0.1353,-0.187438 -0.2501,-0.209852 -0.11458,-0.02219 -0.2325,0.01538 -0.31207,0.09932 l -0.78509,0.830398 c -0.0947,-0.01033 -0.19015,-0.01978 -0.28533,-0.02747 l -0.60631,-0.965759 c -0.0613,-0.09778 -0.16986,-0.157334 -0.28667,-0.157334 -0.1168,0 -0.22536,0.05955 -0.28644,0.157334 l -0.60631,0.965759 c -0.0954,0.0077 -0.19081,0.01714 -0.28555,0.02747 l -0.78531,-0.830398 c -0.0796,-0.08394 -0.19772,-0.121516 -0.31208,-0.09932 -0.1148,0.02263 -0.20931,0.10174 -0.2501,0.209852 l -0.40236,1.060906 c -0.0932,0.02637 -0.18546,0.05428 -0.277518,0.08284 L 30.068892,21.12031 c -0.09474,-0.06746 -0.218229,-0.08174 -0.326117,-0.03736 -0.107666,0.04395 -0.185016,0.140194 -0.20374,0.25358 l -0.185016,1.118698 c -0.0856,0.04373 -0.170303,0.08878 -0.254786,0.1347 l -1.04634,-0.470243 c -0.106328,-0.0479 -0.230266,-0.03802 -0.327009,0.02615 -0.09719,0.06372 -0.154031,0.172935 -0.149573,0.287859 l 0.04012,1.135179 c -0.07445,0.05867 -0.148235,0.11866 -0.221127,0.179307 l -1.121471,-0.260613 c -0.113907,-0.02615 -0.233387,0.0073 -0.315864,0.08856 -0.08292,0.08152 -0.116582,0.199084 -0.08983,0.311371 l 0.264148,1.105732 c -0.0613,0.07164 -0.121932,0.144151 -0.181449,0.217543 l -1.151554,-0.03955 c -0.116136,-0.0033 -0.227145,0.05164 -0.292012,0.147446 -0.06509,0.09537 -0.0749,0.217543 -0.02653,0.322578 l 0.477028,1.031681 c -0.04637,0.08284 -0.09229,0.166343 -0.136644,0.251162 l -1.134613,0.181946 c -0.115245,0.01846 -0.212433,0.09449 -0.257238,0.200843 -0.04458,0.106574 -0.03009,0.22809 0.03789,0.32148 l 0.671183,0.918953 c -0.0292,0.09075 -0.05751,0.181944 -0.08426,0.273797 l -1.07621,0.396631 c -0.109226,0.04021 -0.189697,0.133382 -0.212434,0.246549 -0.02274,0.112946 0.01538,0.229188 0.100756,0.307856 l 0.841931,0.773925 c -0.01048,0.09339 -0.01984,0.187437 -0.02786,0.281267 l -0.979468,0.597694 c -0.0992,0.06043 -0.159603,0.167222 -0.159603,0.282586 0,0.115364 0.06041,0.222157 0.159603,0.282366 l 0.979468,0.597693 c 0.008,0.09405 0.01739,0.187878 0.02786,0.281268 L 22.8662,33.643089 c -0.08537,0.07845 -0.123493,0.19491 -0.100756,0.307636 0.02274,0.113167 0.103208,0.206117 0.212434,0.246549 l 1.07621,0.396631 c 0.02675,0.09185 0.05506,0.183044 0.08426,0.273797 l -0.671183,0.919173 c -0.06821,0.09361 -0.0827,0.215126 -0.03789,0.32126 0.0448,0.106574 0.142216,0.182604 0.257461,0.200843 l 1.13439,0.181945 c 0.04436,0.08482 0.08983,0.168321 0.136644,0.251602 l -0.477028,1.031242 c -0.04859,0.104816 -0.03856,0.226772 0.02653,0.322578 0.06509,0.09603 0.175876,0.152061 0.292012,0.147446 l 1.151108,-0.03977 c 0.05996,0.07383 0.120372,0.146127 0.181895,0.217982 l -0.264146,1.105948 c -0.02675,0.112069 0.0069,0.22919 0.08983,0.310714 0.08225,0.08196 0.201957,0.114704 0.315864,0.08834 l 1.121461,-0.260393 c 0.07289,0.06109 0.146675,0.120417 0.221127,0.178869 l -0.04012,1.135398 c -0.0045,0.114923 0.05238,0.223915 0.149573,0.288078 0.09674,0.06394 0.220681,0.07361 0.327009,0.02571 l 1.04634,-0.470025 c 0.08426,0.04614 0.168966,0.09097 0.254786,0.1347 l 0.185016,1.118039 c 0.01872,0.113824 0.09585,0.210071 0.20374,0.253799 0.107665,0.04417 0.23138,0.02988 0.326117,-0.03714 l 0.93221,-0.662077 c 0.09206,0.02879 0.184572,0.05691 0.277742,0.08328 l 0.40236,1.060467 c 0.0408,0.107672 0.1353,0.18744 0.2501,0.209413 0.11458,0.02285 0.2325,-0.01495 0.31208,-0.09932 l 0.78531,-0.829958 c 0.0947,0.01077 0.19014,0.01978 0.28555,0.02813 l 0.60631,0.965538 c 0.0611,0.09735 0.16964,0.157334 0.28644,0.157334 0.11681,0 0.22536,-0.05977 0.28666,-0.157334 l 0.60632,-0.965538 c 0.0954,-0.0084 0.19059,-0.01736 0.28532,-0.02813 l 0.78509,0.829958 c 0.0796,0.08438 0.19773,0.122177 0.31208,0.09932 0.1148,-0.02219 0.20931,-0.101741 0.2501,-0.209413 l 0.40235,-1.060465 c 0.0932,-0.02637 0.18569,-0.0545 0.27775,-0.08328 l 0.93243,0.662077 c 0.0947,0.06702 0.21823,0.0813 0.3259,0.03714 0.10789,-0.04373 0.18501,-0.140195 0.20374,-0.253799 l 0.18501,-1.118039 c 0.0856,-0.04373 0.17031,-0.08921 0.25479,-0.1347 l 1.04634,0.470025 c 0.10633,0.0479 0.23004,0.03824 0.32701,-0.02571 0.0972,-0.06416 0.15381,-0.172935 0.14957,-0.288078 l -0.0401,-1.135404 c 0.0744,-0.05867 0.14824,-0.117781 0.22091,-0.178869 l 1.12146,0.260393 c 0.1139,0.02637 0.23338,-0.0064 0.31564,-0.08834 0.0829,-0.08152 0.11658,-0.198645 0.0898,-0.310713 l -0.26415,-1.105953 c 0.0615,-0.07185 0.12216,-0.144149 0.18145,-0.217982 l 1.15155,0.03977 c 0.11614,0.0046 0.22715,-0.05142 0.29202,-0.147446 0.0651,-0.09581 0.0751,-0.217762 0.0263,-0.322578 l -0.4768,-1.031242 c 0.0466,-0.08328 0.0923,-0.166782 0.13642,-0.251602 l 1.13462,-0.181938 c 0.11547,-0.01824 0.21266,-0.09427 0.25724,-0.200843 0.0446,-0.106134 0.0305,-0.227651 -0.0379,-0.32126 l -0.67119,-0.919171 c 0.029,-0.09075 0.0573,-0.181945 0.0843,-0.273797 l 1.07599,-0.396632 c 0.10945,-0.04043 0.19014,-0.133381 0.21243,-0.246548 0.0232,-0.112946 -0.0152,-0.229189 -0.10075,-0.307636 l -0.84171,-0.774145 c 0.0102,-0.09339 0.0196,-0.187438 0.0279,-0.281268 l 0.97947,-0.597693 c 0.0992,-0.06021 0.1596,-0.167222 0.1596,-0.282366 0,-0.115144 -0.0602,-0.222158 -0.15938,-0.282586 z"
       id="path3-6"
       sodipodi:nodetypes="cccccccccccccccccccccccccccccccccccccccscccccccccccccccccccccccccccccccccccccccscccccccccccccccccccccccccccccccccccccccscccccccccccccccccccccccccccccccccccccccscc" /><path
       sodipodi:type="arc"
       style="fill:#ffffff;fill-opacity:1;stroke:#000000;stroke-width:0.30000001;stroke-miterlimit:4;stroke-opacity:0;stroke-dasharray:none"
       id="path3014-7"
       sodipodi:cx="246.23326"
       sodipodi:cy="59.962631"
       sodipodi:rx="39.064316"
       sodipodi:ry="41.786011"
       d="m 285.29758,59.962631 a 39.064316,41.786011 0 1 1 -78.12863,0 39.064316,41.786011 0 1 1 78.12863,0 z"
       transform="matrix(0.2387421,0,0,0.21855947,-24.5051,18.654315)" /><path
       style="fill:#000000;fill-opacity:1;stroke:#000000;stroke-width:0.06566712;stroke-linejoin:round;stroke-miterlimit:4;stroke-opacity:0;stroke-dasharray:none"
       d="m 31.790466,22.278628 2.24926,1.968095 c 0.12918,0.113028 0.34902,0.100048 0.49415,-0.02913 l 2.35315,-2.094514 -5.09656,0.155546 z"
       id="path3850"
       inkscape:connector-curvature="0"
       inkscape:transform-center-x="-27.169812"
       inkscape:transform-center-y="-23.09434" /><path
       style="fill:#000000;fill-opacity:1;stroke:#000000;stroke-width:0.06566712;stroke-linejoin:round;stroke-miterlimit:4;stroke-opacity:0;stroke-dasharray:none"
       d="m 42.825126,27.635935 -1.53035,2.447374 c -0.0879,0.140557 -0.0136,0.323631 0.16683,0.411521 l 2.9262,1.425052 -1.56268,-4.283948 z"
       id="path3850-5"
       inkscape:connector-curvature="0"
       inkscape:transform-center-x="-7.7185911"
       inkscape:transform-center-y="3.4322391" /><path
       style="fill:#000000;fill-opacity:1;stroke:#000000;stroke-width:0.06566712;stroke-linejoin:round;stroke-miterlimit:4;stroke-opacity:0;stroke-dasharray:none"
       d="m 24.247019,31.795535 3.517548,-1.451288 c 0.202018,-0.08336 0.254,-0.276564 0.116965,-0.434278 l -2.222609,-2.557296 -1.411911,4.44286 z"
       id="path3850-6"
       inkscape:connector-curvature="0"
       inkscape:transform-center-x="5.2302679"
       inkscape:transform-center-y="-8.6304552" /><path
       style="fill:#000000;fill-opacity:1;stroke:#000000;stroke-width:0.06566712;stroke-linejoin:round;stroke-miterlimit:4;stroke-opacity:0;stroke-dasharray:none"
       d="m 31.177946,40.708799 -0.44865,-3.403817 c -0.02575,-0.195486 -0.217064,-0.300071 -0.429916,-0.235166 l -3.451624,1.052827 4.33019,2.586164 z"
       id="path3850-6-2"
       inkscape:connector-curvature="0"
       inkscape:transform-center-x="3.6278827"
       inkscape:transform-center-y="2.6693721" /><path
       style="fill:#000000;fill-opacity:1;stroke:#000000;stroke-width:0.06566712;stroke-linejoin:round;stroke-miterlimit:4;stroke-opacity:0;stroke-dasharray:none"
       d="m 42.345626,37.330391 -3.84699,-0.465501 c -0.22095,-0.02673 -0.38341,0.110664 -0.36528,0.308765 l 0.29445,3.212417 3.91782,-3.055675 z"
       id="path3850-6-9"
       inkscape:connector-curvature="0"
       inkscape:transform-center-x="-3.5697881"
       inkscape:transform-center-y="3.6891772" /><path
       sodipodi:type="arc"
       style="fill:#ffffff;fill-opacity:1;stroke:#000000;stroke-width:0.30000001;stroke-linejoin:round;stroke-miterlimit:4;stroke-opacity:0;stroke-dasharray:none"
       id="path3909"
       sodipodi:cx="350.26416"
       sodipodi:cy="8.6037722"
       sodipodi:rx="2.9433963"
       sodipodi:ry="3.3962264"
       d="m 353.20756,8.6037722 a 2.9433963,3.3962264 0 1 1 -5.8868,0 2.9433963,3.3962264 0 1 1 5.8868,0 z"
       transform="matrix(0.23300587,0,0,0.20563003,-47.291345,20.832615)" /><path
       sodipodi:type="arc"
       style="fill:#ffffff;fill-opacity:1;stroke:#000000;stroke-width:0.30000001;stroke-linejoin:round;stroke-miterlimit:4;stroke-opacity:0;stroke-dasharray:none"
       id="path3909-1"
       sodipodi:cx="350.26416"
       sodipodi:cy="8.6037722"
       sodipodi:rx="2.9433963"
       sodipodi:ry="3.3962264"
       d="m 353.20756,8.6037722 a 2.9433963,3.3962264 0 1 1 -5.8868,0 2.9433963,3.3962264 0 1 1 5.8868,0 z"
       transform="matrix(0.23300587,0,0,0.20563003,-38.270063,27.723161)" /><path
       sodipodi:type="arc"
       style="fill:#ffffff;fill-opacity:1;stroke:#000000;stroke-width:0.30000001;stroke-linejoin:round;stroke-miterlimit:4;stroke-opacity:0;stroke-dasharray:none"
       id="path3909-2"
       sodipodi:cx="350.26416"
       sodipodi:cy="8.6037722"
       sodipodi:rx="2.9433963"
       sodipodi:ry="3.3962264"
       d="m 353.20756,8.6037722 a 2.9433963,3.3962264 0 1 1 -5.8868,0 2.9433963,3.3962264 0 1 1 5.8868,0 z"
       transform="matrix(0.23300587,0,0,0.20563003,-55.996095,27.769719)" /><path
       sodipodi:type="arc"
       style="fill:#ffffff;fill-opacity:1;stroke:#000000;stroke-width:0.30000001;stroke-linejoin:round;stroke-miterlimit:4;stroke-opacity:0;stroke-dasharray:none"
       id="path3909-7"
       sodipodi:cx="350.26416"
       sodipodi:cy="8.6037722"
       sodipodi:rx="2.9433963"
       sodipodi:ry="3.3962264"
       d="m 353.20756,8.6037722 a 2.9433963,3.3962264 0 1 1 -5.8868,0 2.9433963,3.3962264 0 1 1 5.8868,0 z"
       transform="matrix(0.23300587,0,0,0.20563003,-41.64645,36.848479)" /><path
       sodipodi:type="arc"
       style="fill:#ffffff;fill-opacity:1;stroke:#000000;stroke-width:0.30000001;stroke-linejoin:round;stroke-miterlimit:4;stroke-opacity:0;stroke-dasharray:none"
       id="path3909-0"
       sodipodi:cx="350.26416"
       sodipodi:cy="8.6037722"
       sodipodi:rx="2.9433963"
       sodipodi:ry="3.3962264"
       d="m 353.20756,8.6037722 a 2.9433963,3.3962264 0 1 1 -5.8868,0 2.9433963,3.3962264 0 1 1 5.8868,0 z"
       transform="matrix(0.23300587,0,0,0.20563003,-52.355927,37.314056)" /></g></svg>