<?xml version="1.0" encoding="UTF-8" standalone="no"?>
<svg
   xmlns:dc="http://purl.org/dc/elements/1.1/"
   xmlns:cc="http://creativecommons.org/ns#"
   xmlns:rdf="http://www.w3.org/1999/02/22-rdf-syntax-ns#"
   xmlns:svg="http://www.w3.org/2000/svg"
   xmlns="http://www.w3.org/2000/svg"
   xmlns:sodipodi="http://sodipodi.sourceforge.net/DTD/sodipodi-0.dtd"
   xmlns:inkscape="http://www.inkscape.org/namespaces/inkscape"
   xml:space="preserve"
   viewBox="19 19 323.88856 88.33333"
   height="120"
   width="440"
   y="0px"
   x="0px"
   id="Layer_1"
   version="1.1"
   inkscape:version="0.48.5 r10040"
   sodipodi:docname="tutorials.svg"><metadata
     id="metadata3037"><rdf:RDF><cc:Work
         rdf:about=""><dc:format>image/svg+xml</dc:format><dc:type
           rdf:resource="http://purl.org/dc/dcmitype/StillImage" /><dc:title></dc:title></cc:Work></rdf:RDF></metadata><defs
     id="defs3035" /><sodipodi:namedview
     pagecolor="#ffffff"
     bordercolor="#666666"
     borderopacity="1"
     objecttolerance="10"
     gridtolerance="10"
     guidetolerance="10"
     inkscape:pageopacity="0"
     inkscape:pageshadow="2"
     inkscape:window-width="1600"
     inkscape:window-height="834"
     id="namedview3033"
     showgrid="false"
     inkscape:zoom="2.2083333"
     inkscape:cx="141.91951"
     inkscape:cy="62.067094"
     inkscape:window-x="0"
     inkscape:window-y="27"
     inkscape:window-maximized="1"
     inkscape:current-layer="g2986" /><g
     id="g2986"
     transform="matrix(3.1591955,0,0,3.579784,-48.053106,-50.835255)"><text
       inkscape:export-ydpi="90"
       inkscape:export-xdpi="90"
       inkscape:export-filename="/home/dowwie/MyProjects/tutorials-rs/authz-rs/images/tutorials.png"
       transform="scale(1.2606683,0.79323007)"
       sodipodi:linespacing="125%"
       id="text3039"
       y="45.036537"
       x="17.085361"
       style="font-size:15.41931248000000032px;font-style:normal;font-weight:normal;line-height:125%;letter-spacing:0px;word-spacing:0px;fill:#333333;fill-opacity:1;stroke:#ffffff;font-family:Sans;stroke-opacity:1;stroke-width:0.06566712000000000;stroke-miterlimit:4;stroke-dasharray:none"
       xml:space="preserve"><tspan
         style="font-style:normal;font-variant:normal;font-weight:normal;font-stretch:normal;font-family:ChunkFive;-inkscape-font-specification:ChunkFive;fill:#333333;fill-opacity:1;stroke:#ffffff;stroke-opacity:1;stroke-width:0.06566712000000000;stroke-miterlimit:4;stroke-dasharray:none"
         y="45.036537"
         x="17.085361"
         id="tspan3041"
         sodipodi:role="line">Tuto</tspan></text>
<text
       inkscape:export-ydpi="90"
       inkscape:export-xdpi="90"
       inkscape:export-filename="/home/dowwie/MyProjects/tutorials-rs/authz-rs/images/tutorials.png"
       transform="scale(1.2606683,0.79323007)"
       sodipodi:linespacing="125%"
       id="text3043"
       y="45.586266"
       x="70.669418"
       style="font-size:15.41931248000000032px;font-style:normal;font-weight:normal;line-height:125%;letter-spacing:0px;word-spacing:0px;fill:#333333;fill-opacity:1;stroke:#ffffff;font-family:Sans;stroke-opacity:1;stroke-width:0.06566712000000000;stroke-miterlimit:4;stroke-dasharray:none"
       xml:space="preserve"><tspan
         style="font-style:normal;font-variant:normal;font-weight:normal;font-stretch:normal;font-family:ChunkFive;-inkscape-font-specification:ChunkFive;fill:#333333;fill-opacity:1;stroke:#ffffff;stroke-opacity:1;stroke-width:0.06566712000000000;stroke-miterlimit:4;stroke-dasharray:none"
         y="45.586266"
         x="70.669418"
         id="tspan3045"
         sodipodi:role="line">ials</tspan></text>
<path
       inkscape:export-ydpi="90"
       inkscape:export-xdpi="90"
       inkscape:export-filename="/home/dowwie/MyProjects/tutorials-rs/authz-rs/images/tutorials.png"
       inkscape:connector-curvature="0"
       d="m 88.728173,31.773409 -0.979468,-0.597694 c -0.0082,-0.09405 -0.01761,-0.187878 -0.02786,-0.281267 l 0.841708,-0.773925 c 0.0856,-0.07867 0.123938,-0.19513 0.100756,-0.307856 -0.02251,-0.113167 -0.102985,-0.206337 -0.212434,-0.246549 l -1.075987,-0.396631 c -0.02697,-0.09185 -0.05528,-0.183044 -0.08426,-0.273797 l 0.671183,-0.918953 c 0.06843,-0.09339 0.08248,-0.214906 0.03789,-0.32148 -0.04458,-0.106135 -0.141994,-0.182165 -0.257238,-0.200843 L 86.60785,27.272469 c -0.04414,-0.08482 -0.09006,-0.168321 -0.136421,-0.251163 l 0.476805,-1.031681 c 0.04882,-0.105035 0.03879,-0.227211 -0.0263,-0.322578 -0.06487,-0.09581 -0.174762,-0.151841 -0.292013,-0.147446 l -1.151553,0.03955 c -0.05952,-0.07339 -0.120149,-0.146127 -0.181895,-0.217543 l 0.264594,-1.105733 c 0.02675,-0.112287 -0.0069,-0.229848 -0.08983,-0.311371 -0.08225,-0.0813 -0.201733,-0.114925 -0.31564,-0.08856 l -1.121461,0.260612 c -0.07267,-0.06065 -0.146452,-0.120637 -0.221127,-0.179308 l 0.04035,-1.135178 c 0.0045,-0.114924 -0.05238,-0.224135 -0.149573,-0.28786 -0.09741,-0.06416 -0.220681,-0.07383 -0.32701,-0.02615 l -1.04634,0.470244 c -0.08448,-0.04571 -0.169189,-0.09097 -0.254786,-0.134701 l -0.185015,-1.118697 c -0.01873,-0.113386 -0.09585,-0.209632 -0.20374,-0.25358 -0.107666,-0.04417 -0.231158,-0.02989 -0.325895,0.03736 l -0.932879,0.661638 c -0.09184,-0.02879 -0.184124,-0.05647 -0.2773,-0.08284 L 79.74846,20.986579 c -0.04079,-0.108112 -0.135306,-0.187438 -0.250105,-0.209852 -0.114576,-0.02219 -0.232495,0.01538 -0.312074,0.09932 l -0.78509,0.830398 c -0.09474,-0.01033 -0.190142,-0.01978 -0.285325,-0.02747 l -0.606315,-0.965759 c -0.0613,-0.09778 -0.169858,-0.157334 -0.286663,-0.157334 -0.116805,0 -0.225362,0.05955 -0.286439,0.157334 l -0.606316,0.965759 c -0.09541,0.0077 -0.190811,0.01714 -0.285548,0.02747 l -0.785312,-0.830398 c -0.07958,-0.08394 -0.197722,-0.121516 -0.312075,-0.09932 -0.114798,0.02263 -0.209312,0.10174 -0.250105,0.209852 l -0.402353,1.060906 c -0.09318,0.02637 -0.185461,0.05428 -0.277523,0.08284 l -0.932656,-0.661638 c -0.09474,-0.06746 -0.218229,-0.08174 -0.326117,-0.03736 -0.107666,0.04395 -0.185016,0.140194 -0.20374,0.25358 l -0.185016,1.118697 c -0.0856,0.04373 -0.170303,0.08878 -0.254786,0.134701 l -1.04634,-0.470244 c -0.106328,-0.0479 -0.230266,-0.03802 -0.327009,0.02615 -0.09719,0.06372 -0.154031,0.172936 -0.149573,0.28786 l 0.04012,1.135178 c -0.07445,0.05867 -0.148235,0.11866 -0.221127,0.179308 l -1.121461,-0.260612 c -0.113907,-0.02615 -0.233387,0.0073 -0.315864,0.08856 -0.08292,0.08152 -0.116582,0.199084 -0.08983,0.311371 l 0.264148,1.105733 c -0.0613,0.07164 -0.121932,0.14415 -0.181449,0.217543 l -1.151554,-0.03955 c -0.116136,-0.0033 -0.227145,0.05164 -0.292012,0.147446 -0.06509,0.09537 -0.0749,0.217543 -0.02653,0.322578 l 0.477028,1.031681 c -0.04637,0.08284 -0.09229,0.166343 -0.136644,0.251163 l -1.134613,0.181945 c -0.115245,0.01846 -0.212433,0.09449 -0.257238,0.200843 -0.04458,0.106574 -0.03009,0.22809 0.03789,0.32148 l 0.671183,0.918953 c -0.0292,0.09075 -0.05751,0.181945 -0.08426,0.273797 l -1.07621,0.396631 c -0.109226,0.04021 -0.189697,0.133382 -0.212434,0.246549 -0.02274,0.112946 0.01538,0.229189 0.100756,0.307856 l 0.841931,0.773925 c -0.01048,0.09339 -0.01984,0.187438 -0.02786,0.281267 l -0.979468,0.597694 c -0.0992,0.06043 -0.159603,0.167222 -0.159603,0.282586 0,0.115364 0.06041,0.222157 0.159603,0.282366 l 0.979468,0.597694 c 0.008,0.09405 0.01739,0.187878 0.02786,0.281267 l -0.841931,0.774145 c -0.08537,0.07845 -0.123493,0.19491 -0.100756,0.307636 0.02274,0.113167 0.103208,0.206117 0.212434,0.246549 l 1.07621,0.396631 c 0.02675,0.09185 0.05506,0.183044 0.08426,0.273797 l -0.671183,0.919173 c -0.06821,0.09361 -0.0827,0.215126 -0.03789,0.32126 0.0448,0.106574 0.142216,0.182604 0.257461,0.200843 l 1.13439,0.181945 c 0.04436,0.08482 0.08983,0.168321 0.136644,0.251602 l -0.477028,1.031242 c -0.04859,0.104816 -0.03856,0.226772 0.02653,0.322578 0.06509,0.09603 0.175876,0.152061 0.292012,0.147446 l 1.151108,-0.03977 c 0.05996,0.07383 0.120372,0.146127 0.181895,0.217982 l -0.264146,1.105949 c -0.02675,0.112068 0.0069,0.229189 0.08983,0.310713 0.08225,0.08196 0.201957,0.114704 0.315864,0.08834 l 1.121461,-0.260393 c 0.07289,0.06109 0.146675,0.120418 0.221127,0.178869 l -0.04012,1.135398 c -0.0045,0.114924 0.05238,0.223915 0.149573,0.288079 0.09674,0.06394 0.220681,0.07361 0.327009,0.02571 l 1.04634,-0.470024 c 0.08426,0.04614 0.168966,0.09097 0.254786,0.1347 l 0.185016,1.118039 c 0.01872,0.113825 0.09585,0.210071 0.20374,0.2538 0.107665,0.04417 0.23138,0.02988 0.326117,-0.03714 l 0.93221,-0.662078 c 0.09206,0.02879 0.18457,0.05691 0.277747,0.08328 l 0.402352,1.060466 c 0.04079,0.107673 0.135307,0.187439 0.250106,0.209413 0.114575,0.02285 0.232495,-0.01494 0.312074,-0.09932 l 0.785312,-0.829959 c 0.09474,0.01077 0.190143,0.01978 0.285548,0.02813 l 0.606316,0.965539 c 0.06108,0.09735 0.169634,0.157334 0.286439,0.157334 0.116805,0 0.225362,-0.05977 0.286663,-0.157334 l 0.606315,-0.965539 c 0.09541,-0.0084 0.190588,-0.01736 0.285325,-0.02813 l 0.78509,0.829959 c 0.07958,0.08438 0.197721,0.122176 0.312074,0.09932 0.114799,-0.02219 0.209313,-0.10174 0.250105,-0.209413 l 0.402351,-1.060464 c 0.09318,-0.02637 0.185684,-0.0545 0.277746,-0.08328 l 0.932433,0.662078 c 0.09474,0.06702 0.218229,0.0813 0.325895,0.03714 0.107888,-0.04373 0.185015,-0.140195 0.20374,-0.2538 l 0.185015,-1.118039 c 0.0856,-0.04373 0.170303,-0.08921 0.254786,-0.1347 l 1.046341,0.470024 c 0.106328,0.0479 0.230043,0.03824 0.327009,-0.02571 0.09719,-0.06416 0.153808,-0.172935 0.149573,-0.288079 l -0.04012,-1.135404 c 0.07445,-0.05867 0.148235,-0.117781 0.220904,-0.178869 l 1.121461,0.260393 c 0.113907,0.02637 0.233387,-0.0064 0.315641,-0.08834 0.08292,-0.08152 0.116582,-0.198645 0.08983,-0.310713 l -0.264148,-1.105953 c 0.06152,-0.07185 0.122155,-0.144149 0.181449,-0.217982 l 1.151553,0.03977 c 0.116137,0.0046 0.227146,-0.05142 0.292013,-0.147446 0.06509,-0.09581 0.07512,-0.217762 0.0263,-0.322578 l -0.476805,-1.031242 c 0.04659,-0.08328 0.09229,-0.166782 0.136421,-0.251602 l 1.134618,-0.181938 c 0.115467,-0.01824 0.212656,-0.09427 0.257238,-0.200843 0.04458,-0.106134 0.03054,-0.227651 -0.03789,-0.32126 L 87.290406,35.21608 c 0.02898,-0.09075 0.05729,-0.181945 0.08426,-0.273797 l 1.075987,-0.396631 c 0.109449,-0.04043 0.190143,-0.133382 0.212434,-0.246549 0.02318,-0.112946 -0.01516,-0.229189 -0.100756,-0.307636 l -0.841708,-0.774145 c 0.01025,-0.09339 0.01962,-0.187438 0.02786,-0.281267 l 0.979468,-0.597694 c 0.09919,-0.06021 0.159603,-0.167222 0.159603,-0.282366 0,-0.115144 -0.06019,-0.222158 -0.15938,-0.282586 z m -6.555565,8.009752 c -0.374043,-0.07955 -0.611888,-0.442996 -0.531641,-0.812819 0.08003,-0.369383 0.448495,-0.604505 0.822316,-0.524959 0.374043,0.07889 0.612334,0.442996 0.532086,0.81216 -0.08025,0.369163 -0.448941,0.604505 -0.822761,0.525618 z m -0.332805,-2.218937 c -0.341275,-0.07207 -0.676978,0.141952 -0.750093,0.479034 l -0.347739,1.599709 c -1.07309,0.480133 -2.264767,0.746897 -3.519752,0.746897 -1.283739,0 -2.501274,-0.279949 -3.593534,-0.780517 l -0.347517,-1.59971 c -0.07312,-0.336642 -0.408817,-0.551108 -0.74987,-0.478814 l -1.432643,0.303242 c -0.265932,-0.269841 -0.513362,-0.557261 -0.740731,-0.860723 l 6.970846,0 c 0.07891,0 0.131517,-0.01406 0.131517,-0.08482 l 0,-2.430767 c 0,-0.07076 -0.05261,-0.08482 -0.131517,-0.08482 l -2.038736,0 0,-1.540819 2.205027,0 c 0.201288,0 1.076211,0.05669 1.355963,1.15913 0.0876,0.33906 0.279975,1.441936 0.411492,1.795059 0.131071,0.395971 0.664718,1.187036 1.233362,1.187036 l 3.473609,0 c 0.03946,0 0.08159,-0.0044 0.125944,-0.01231 -0.240966,0.322798 -0.505337,0.628237 -0.789994,0.91368 l -1.465634,-0.310493 z m -9.64131,2.185537 c -0.374043,0.07955 -0.74229,-0.155576 -0.822761,-0.52496 -0.08003,-0.370042 0.15782,-0.733273 0.531864,-0.812819 0.374043,-0.07889 0.742513,0.156235 0.822761,0.525619 0.08002,0.369163 -0.158043,0.733053 -0.531864,0.81216 z M 69.55411,29.179155 c 0.155146,0.345212 -0.0027,0.749754 -0.352421,0.902474 -0.349746,0.153159 -0.759009,-0.0026 -0.914154,-0.348069 -0.155146,-0.345432 0.0027,-0.749314 0.352421,-0.902473 0.349969,-0.152939 0.759009,0.0026 0.914154,0.348068 z m -0.81273,1.899215 1.492383,-0.653727 c 0.318762,-0.139535 0.462762,-0.50782 0.321214,-0.822707 l -0.307393,-0.68515 1.208842,0 0,5.37133 -2.43886,0 c -0.211542,-0.733053 -0.325003,-1.506759 -0.325003,-2.306393 0,-0.30522 0.01672,-0.606923 0.04882,-0.903353 z m 6.5491,-0.521663 0,-1.583229 2.878662,0 c 0.148681,0 1.049906,0.16942 1.049906,0.833695 0,0.551548 -0.691244,0.749314 -1.259665,0.749314 l -2.668903,0 z m 10.461619,1.425016 c 0,0.210071 -0.0078,0.417946 -0.0234,0.624282 l -0.875146,0 c -0.0876,0 -0.122823,0.05669 -0.122823,0.141293 l 0,0.396191 c 0,0.932578 -0.533424,1.135398 -1.000867,1.187037 -0.445151,0.04944 -0.938674,-0.183703 -0.999529,-0.452225 -0.262588,-1.455999 -0.700161,-1.766932 -1.391182,-2.304197 0.857535,-0.536825 1.749845,-1.328769 1.749845,-2.388796 0,-1.144627 -0.796013,-1.865595 -1.338576,-2.219157 -0.761238,-0.494635 -1.604061,-0.593738 -1.83143,-0.593738 l -9.05082,0 c 1.227343,-1.350304 2.890698,-2.306833 4.77206,-2.654902 l 1.066848,1.103316 c 0.241189,0.248966 0.640644,0.258195 0.892978,0.02022 l 1.193684,-1.125509 c 2.501275,0.459037 4.618921,1.993923 5.839354,4.099694 l -0.817188,1.819449 c -0.141102,0.314888 0.0029,0.683172 0.321436,0.822707 l 1.5733,0.688886 c 0.0272,0.275335 0.04146,0.553526 0.04146,0.835453 z M 76.70752,22.779001 c 0.276408,-0.261052 0.714873,-0.250724 0.979467,0.02219 0.264149,0.273577 0.254118,0.706246 -0.02296,0.967077 -0.276408,0.261052 -0.714873,0.250944 -0.979467,-0.02241 -0.263925,-0.273137 -0.253895,-0.705806 0.02296,-0.966857 z m 8.109471,6.433335 c 0.154923,-0.345212 0.564186,-0.501008 0.913932,-0.347849 0.349746,0.15294 0.507566,0.557262 0.352421,0.902474 -0.154923,0.345431 -0.564186,0.501227 -0.914155,0.348068 -0.3493,-0.152939 -0.50712,-0.557041 -0.352198,-0.902693 z"
       id="path3" /></g></svg>